<svg id="Capa_1" enable-background="new 0 0 512 512" height="512" viewBox="0 0 512 512" width="512" xmlns="http://www.w3.org/2000/svg"><g><g><path d="m419.957 196.789c0-4.144-3.359-7.502-7.502-7.502s-7.502 3.358-7.502 7.502c0 4.777-3.887 8.664-8.665 8.664-4.143 0-7.502 3.358-7.502 7.502s3.359 7.502 7.502 7.502c13.051-.001 23.669-10.619 23.669-23.668z"/><path d="m382.855 248.503c-4.143 0-7.502 3.358-7.502 7.502 0 4.777-3.887 8.665-8.665 8.665-4.143 0-7.502 3.358-7.502 7.502s3.359 7.502 7.502 7.502c13.05 0 23.668-10.618 23.668-23.668.001-4.144-3.358-7.503-7.501-7.503z"/><path d="m436.123 270.265c0-4.143-3.359-7.502-7.502-7.502s-7.502 3.358-7.502 7.502c0 4.777-3.887 8.664-8.665 8.664-4.143 0-7.502 3.358-7.502 7.502s3.359 7.502 7.502 7.502c13.052-.001 23.669-10.618 23.669-23.668z"/><path d="m379.364 314.265c0 4.777-3.887 8.664-8.665 8.664-4.143 0-7.502 3.358-7.502 7.502s3.359 7.502 7.502 7.502c13.05 0 23.668-10.618 23.668-23.667 0-4.143-3.359-7.502-7.502-7.502-4.142-.001-7.501 3.358-7.501 7.501z"/><path d="m330.608 278.348c0-4.144-3.359-7.502-7.502-7.502s-7.502 3.358-7.502 7.502c0 4.777-3.887 8.665-8.665 8.665-4.143 0-7.502 3.358-7.502 7.502 0 4.143 3.359 7.502 7.502 7.502 13.051-.001 23.669-10.618 23.669-23.669z"/><path d="m398.525 418.413c-1.047 1.082-2.105 2.158-3.174 3.226-71.412 71.414-176.423 95.079-255.363 57.553-8.183-3.892-17.55-4-25.698-.295-19.713 8.954-39.121 7.361-50.644-4.154-11.511-11.519-13.111-30.908-4.175-50.604 3.696-8.157 3.578-17.524-.321-25.698-28.598-60.002-22.956-134.98 15.093-200.567 2.079-3.584.859-8.175-2.724-10.253-3.583-2.08-8.175-.86-10.253 2.724-19.76 34.062-31.666 71.762-34.429 109.024-2.777 37.446 3.714 73.937 18.771 105.529 1.992 4.175 2.063 8.93.199 13.045-11.582 25.526-8.814 51.354 7.23 67.409 16.061 16.05 41.91 18.812 67.46 7.204 4.113-1.869 8.868-1.801 13.049.187 26.83 12.753 57.237 19.257 88.665 19.257 16.409 0 33.102-1.775 49.701-5.359 49.776-10.749 96.13-36.474 134.05-74.395 1.127-1.127 2.242-2.261 3.346-3.402 2.881-2.977 2.802-7.726-.175-10.608-2.977-2.878-7.727-2.801-10.608.177z"/><path d="m466.38 159.654c-1.992-4.175-2.063-8.93-.198-13.046 11.581-25.537 8.812-51.365-7.229-67.407-13.57-13.569-34.078-17.692-55.776-11.501-20.633-25.826-47.319-44.842-79.422-56.538-44.28-16.116-82.83-11.834-107.373-5.405-26.701 6.995-42.886 17.827-43.562 18.285-2.683 1.816-3.896 5.15-3.009 8.265.244.858 5.6 19.233 21.243 41.473-30.85 13.557-59.822 33.319-85.026 58.523-8.847 8.845-17.155 18.306-24.695 28.121-2.524 3.286-1.907 7.995 1.378 10.519 1.363 1.047 2.97 1.553 4.565 1.553 2.251 0 4.477-1.009 5.954-2.931 7.145-9.299 15.019-18.266 23.407-26.651 31.245-31.246 68.543-53.641 107.875-65.554-37.928 21.55-60.189 50.636-72.486 72.302-14.903 26.256-18.787 47.291-18.945 48.173-.563 3.142.924 6.296 3.706 7.861 1.607.904 34.327 18.947 82.271 18.945 8.67 0 17.843-.59 27.414-1.979 4.1-.594 6.942-4.4 6.347-8.501-.594-4.1-4.401-6.951-8.501-6.346-45.873 6.655-82.299-6.971-95.165-12.763 2.032-7.489 6.743-21.944 16.222-38.514 18.383-32.133 45.04-56.601 79.231-72.722 17.848-8.416 36.145-13.795 54.748-16.13.629 0 1.243-.072 1.828-.22 16.443-1.885 33.121-1.398 49.939 1.489 9.25 1.587 17.364 3.738 24.072 5.895-29.119 6.417-87.931 23.198-142.042 61.955-3.368 2.413-4.143 7.099-1.73 10.467 1.465 2.045 3.767 3.134 6.105 3.134 1.512 0 3.039-.456 4.362-1.404 59.478-42.602 126.709-57.792 147.36-61.655-2.606 8.029-7.06 19.452-14.309 32.121-18.383 32.133-45.04 56.601-79.23 72.722-6.137 2.894-12.424 5.461-18.686 7.631-3.915 1.357-5.989 5.63-4.632 9.544 1.356 3.915 5.629 5.988 9.544 4.633 6.766-2.344 13.552-5.115 20.172-8.237 46.39-21.874 72.471-55.26 86.181-79.416 11.152-19.647 16.133-36.369 18-43.912 16.752-5.064 32.255-2.419 42.054 7.378 11.51 11.51 13.109 30.9 4.173 50.603-3.696 8.157-3.578 17.524.321 25.698 32.467 68.12 19.844 156.963-32.158 226.341-2.485 3.315-1.811 8.016 1.504 10.501 1.349 1.012 2.927 1.5 4.493 1.499 2.281 0 4.535-1.036 6.009-3.003 27.365-36.508 44.961-78.482 50.885-121.387 5.91-42.78-.034-84.416-17.189-120.409zm-167.04-106.966c-31.67-1.308-63.557 4.039-93.957 15.308-10.593-14.413-16.509-27.439-19.237-34.423 6.306-3.45 18.387-9.267 34.634-13.457 32.507-8.386 65.425-6.655 97.841 5.144 21.366 7.784 40.112 19.08 56.008 33.716-5.995-1.734-12.804-3.381-20.32-4.697-14.606-2.558-33.485-4.065-54.969-1.591z"/></g></g></svg>